<?xml version="1.0" encoding="UTF-8" standalone="no"?><svg xmlns="http://www.w3.org/2000/svg" xmlns:xlink="http://www.w3.org/1999/xlink" contentScriptType="application/ecmascript" contentStyleType="text/css" height="1672px" preserveAspectRatio="none" style="width:1349px;height:1672px;" version="1.1" viewBox="0 0 1349 1672" width="1349px" zoomAndPan="magnify"><defs><filter height="300%" id="f2yo04f" width="300%" x="-1" y="-1"><feGaussianBlur result="blurOut" stdDeviation="2.0"/><feColorMatrix in="blurOut" result="blurOut2" type="matrix" values="0 0 0 0 0 0 0 0 0 0 0 0 0 0 0 0 0 0 .4 0"/><feOffset dx="4.0" dy="4.0" in="blurOut2" result="blurOut3"/><feBlend in="SourceGraphic" in2="blurOut3" mode="normal"/></filter></defs><g><rect fill="#FFFFFF" filter="url(#f2yo04f)" height="198.2969" style="stroke: #000000; stroke-width: 2.0;" width="1177.5" x="13" y="191.0156"/><rect fill="#FFFFFF" height="149.5938" style="stroke: none; stroke-width: 1.0;" width="1177.5" x="13" y="239.7188"/><rect fill="#FFFFFF" filter="url(#f2yo04f)" height="168.5938" style="stroke: #000000; stroke-width: 2.0;" width="533" x="527" y="955.2891"/><rect fill="#FFFFFF" height="89.5391" style="stroke: none; stroke-width: 1.0;" width="533" x="527" y="1034.3438"/><rect fill="#FFFFFF" filter="url(#f2yo04f)" height="198.9453" style="stroke: #000000; stroke-width: 2.0;" width="503.5" x="776" y="1181.2344"/><rect fill="#FFFFFF" height="119.8906" style="stroke: none; stroke-width: 1.0;" width="503.5" x="776" y="1260.2891"/><line style="stroke: #A80036; stroke-width: 1.0; stroke-dasharray: 5.0,5.0;" x1="46" x2="46" y1="39.6094" y2="1632.6406"/><line style="stroke: #A80036; stroke-width: 1.0; stroke-dasharray: 5.0,5.0;" x1="153.5" x2="153.5" y1="39.6094" y2="1632.6406"/><line style="stroke: #A80036; stroke-width: 1.0; stroke-dasharray: 5.0,5.0;" x1="288" x2="288" y1="39.6094" y2="1632.6406"/><line style="stroke: #A80036; stroke-width: 1.0; stroke-dasharray: 5.0,5.0;" x1="477" x2="477" y1="39.6094" y2="1632.6406"/><line style="stroke: #A80036; stroke-width: 1.0; stroke-dasharray: 5.0,5.0;" x1="595" x2="595" y1="39.6094" y2="1632.6406"/><line style="stroke: #A80036; stroke-width: 1.0; stroke-dasharray: 5.0,5.0;" x1="719" x2="719" y1="39.6094" y2="1632.6406"/><line style="stroke: #A80036; stroke-width: 1.0; stroke-dasharray: 5.0,5.0;" x1="832" x2="832" y1="39.6094" y2="1632.6406"/><line style="stroke: #A80036; stroke-width: 1.0; stroke-dasharray: 5.0,5.0;" x1="1002" x2="1002" y1="39.6094" y2="1632.6406"/><line style="stroke: #A80036; stroke-width: 1.0; stroke-dasharray: 5.0,5.0;" x1="1136.5" x2="1136.5" y1="39.6094" y2="1632.6406"/><line style="stroke: #A80036; stroke-width: 1.0; stroke-dasharray: 5.0,5.0;" x1="1229.5" x2="1229.5" y1="39.6094" y2="1632.6406"/><rect fill="#FEFECE" filter="url(#f2yo04f)" height="31.6094" style="stroke: #A80036; stroke-width: 1.5;" width="42" x="23" y="3"/><text fill="#000000" font-family="sans-serif" font-size="14" lengthAdjust="spacingAndGlyphs" textLength="28" x="30" y="24.5332">start</text><rect fill="#FEFECE" filter="url(#f2yo04f)" height="31.6094" style="stroke: #A80036; stroke-width: 1.5;" width="42" x="23" y="1631.6406"/><text fill="#000000" font-family="sans-serif" font-size="14" lengthAdjust="spacingAndGlyphs" textLength="28" x="30" y="1653.1738">start</text><rect fill="#FEFECE" filter="url(#f2yo04f)" height="31.6094" style="stroke: #A80036; stroke-width: 1.5;" width="39" x="132.5" y="3"/><text fill="#000000" font-family="sans-serif" font-size="14" lengthAdjust="spacingAndGlyphs" textLength="25" x="139.5" y="24.5332">root</text><rect fill="#FEFECE" filter="url(#f2yo04f)" height="31.6094" style="stroke: #A80036; stroke-width: 1.5;" width="39" x="132.5" y="1631.6406"/><text fill="#000000" font-family="sans-serif" font-size="14" lengthAdjust="spacingAndGlyphs" textLength="25" x="139.5" y="1653.1738">root</text><rect fill="#FEFECE" filter="url(#f2yo04f)" height="31.6094" style="stroke: #A80036; stroke-width: 1.5;" width="70" x="251" y="3"/><text fill="#000000" font-family="sans-serif" font-size="14" lengthAdjust="spacingAndGlyphs" textLength="56" x="258" y="24.5332">Validator</text><rect fill="#FEFECE" filter="url(#f2yo04f)" height="31.6094" style="stroke: #A80036; stroke-width: 1.5;" width="70" x="251" y="1631.6406"/><text fill="#000000" font-family="sans-serif" font-size="14" lengthAdjust="spacingAndGlyphs" textLength="56" x="258" y="1653.1738">Validator</text><rect fill="#FEFECE" filter="url(#f2yo04f)" height="31.6094" style="stroke: #A80036; stroke-width: 1.5;" width="96" x="427" y="3"/><text fill="#000000" font-family="sans-serif" font-size="14" lengthAdjust="spacingAndGlyphs" textLength="82" x="434" y="24.5332">WebChecker</text><rect fill="#FEFECE" filter="url(#f2yo04f)" height="31.6094" style="stroke: #A80036; stroke-width: 1.5;" width="96" x="427" y="1631.6406"/><text fill="#000000" font-family="sans-serif" font-size="14" lengthAdjust="spacingAndGlyphs" textLength="82" x="434" y="1653.1738">WebChecker</text><rect fill="#FEFECE" filter="url(#f2yo04f)" height="31.6094" style="stroke: #A80036; stroke-width: 1.5;" width="112" x="537" y="3"/><text fill="#000000" font-family="sans-serif" font-size="14" lengthAdjust="spacingAndGlyphs" textLength="98" x="544" y="24.5332">DataDispatcher</text><rect fill="#FEFECE" filter="url(#f2yo04f)" height="31.6094" style="stroke: #A80036; stroke-width: 1.5;" width="112" x="537" y="1631.6406"/><text fill="#000000" font-family="sans-serif" font-size="14" lengthAdjust="spacingAndGlyphs" textLength="98" x="544" y="1653.1738">DataDispatcher</text><rect fill="#FEFECE" filter="url(#f2yo04f)" height="31.6094" style="stroke: #A80036; stroke-width: 1.5;" width="109" x="663" y="3"/><text fill="#000000" font-family="sans-serif" font-size="14" lengthAdjust="spacingAndGlyphs" textLength="95" x="670" y="24.5332">DataDistributor</text><rect fill="#FEFECE" filter="url(#f2yo04f)" height="31.6094" style="stroke: #A80036; stroke-width: 1.5;" width="109" x="663" y="1631.6406"/><text fill="#000000" font-family="sans-serif" font-size="14" lengthAdjust="spacingAndGlyphs" textLength="95" x="670" y="1653.1738">DataDistributor</text><rect fill="#FEFECE" filter="url(#f2yo04f)" height="31.6094" style="stroke: #A80036; stroke-width: 1.5;" width="89" x="786" y="3"/><text fill="#000000" font-family="sans-serif" font-size="14" lengthAdjust="spacingAndGlyphs" textLength="75" x="793" y="24.5332">FlowControl</text><rect fill="#FEFECE" filter="url(#f2yo04f)" height="31.6094" style="stroke: #A80036; stroke-width: 1.5;" width="89" x="786" y="1631.6406"/><text fill="#000000" font-family="sans-serif" font-size="14" lengthAdjust="spacingAndGlyphs" textLength="75" x="793" y="1653.1738">FlowControl</text><rect fill="#FEFECE" filter="url(#f2yo04f)" height="31.6094" style="stroke: #A80036; stroke-width: 1.5;" width="91" x="955" y="3"/><text fill="#000000" font-family="sans-serif" font-size="14" lengthAdjust="spacingAndGlyphs" textLength="77" x="962" y="24.5332">WebCrawler</text><rect fill="#FEFECE" filter="url(#f2yo04f)" height="31.6094" style="stroke: #A80036; stroke-width: 1.5;" width="91" x="955" y="1631.6406"/><text fill="#000000" font-family="sans-serif" font-size="14" lengthAdjust="spacingAndGlyphs" textLength="77" x="962" y="1653.1738">WebCrawler</text><rect fill="#FEFECE" filter="url(#f2yo04f)" height="31.6094" style="stroke: #A80036; stroke-width: 1.5;" width="84" x="1092.5" y="3"/><text fill="#000000" font-family="sans-serif" font-size="14" lengthAdjust="spacingAndGlyphs" textLength="70" x="1099.5" y="24.5332">FileReader</text><rect fill="#FEFECE" filter="url(#f2yo04f)" height="31.6094" style="stroke: #A80036; stroke-width: 1.5;" width="84" x="1092.5" y="1631.6406"/><text fill="#000000" font-family="sans-serif" font-size="14" lengthAdjust="spacingAndGlyphs" textLength="70" x="1099.5" y="1653.1738">FileReader</text><rect fill="#FEFECE" filter="url(#f2yo04f)" height="31.6094" style="stroke: #A80036; stroke-width: 1.5;" width="75" x="1190.5" y="3"/><text fill="#000000" font-family="sans-serif" font-size="14" lengthAdjust="spacingAndGlyphs" textLength="61" x="1197.5" y="24.5332">FileWriter</text><rect fill="#FEFECE" filter="url(#f2yo04f)" height="31.6094" style="stroke: #A80036; stroke-width: 1.5;" width="75" x="1190.5" y="1631.6406"/><text fill="#000000" font-family="sans-serif" font-size="14" lengthAdjust="spacingAndGlyphs" textLength="61" x="1197.5" y="1653.1738">FileWriter</text><polygon fill="#A80036" points="142,67.6094,152,71.6094,142,75.6094,146,71.6094" style="stroke: #A80036; stroke-width: 1.0;"/><line style="stroke: #A80036; stroke-width: 1.0;" x1="46" x2="148" y1="71.6094" y2="71.6094"/><text fill="#000000" font-family="sans-serif" font-size="13" font-weight="bold" lengthAdjust="spacingAndGlyphs" textLength="7" x="53" y="67.1045">1</text><text fill="#000000" font-family="sans-serif" font-size="13" lengthAdjust="spacingAndGlyphs" textLength="73" x="64" y="67.1045">StartSystem</text><line style="stroke: #A80036; stroke-width: 1.0;" x1="154" x2="196" y1="102.3125" y2="102.3125"/><line style="stroke: #A80036; stroke-width: 1.0;" x1="196" x2="196" y1="102.3125" y2="115.3125"/><line style="stroke: #A80036; stroke-width: 1.0;" x1="155" x2="196" y1="115.3125" y2="115.3125"/><polygon fill="#A80036" points="165,111.3125,155,115.3125,165,119.3125,161,115.3125" style="stroke: #A80036; stroke-width: 1.0;"/><text fill="#000000" font-family="sans-serif" font-size="13" font-weight="bold" lengthAdjust="spacingAndGlyphs" textLength="7" x="161" y="97.4561">2</text><text fill="#000000" font-family="sans-serif" font-size="13" lengthAdjust="spacingAndGlyphs" textLength="98" x="172" y="97.4561">Create workers/s</text><polygon fill="#A80036" points="276,141.3125,286,145.3125,276,149.3125,280,145.3125" style="stroke: #A80036; stroke-width: 1.0;"/><line style="stroke: #A80036; stroke-width: 1.0;" x1="154" x2="282" y1="145.3125" y2="145.3125"/><text fill="#000000" font-family="sans-serif" font-size="13" font-weight="bold" lengthAdjust="spacingAndGlyphs" textLength="7" x="161" y="140.8076">3</text><text fill="#000000" font-family="sans-serif" font-size="13" lengthAdjust="spacingAndGlyphs" textLength="47" x="172" y="140.8076">Validate</text><polygon fill="#A80036" points="1124.5,171.6641,1134.5,175.6641,1124.5,179.6641,1128.5,175.6641" style="stroke: #A80036; stroke-width: 1.0;"/><line style="stroke: #A80036; stroke-width: 1.0;" x1="288" x2="1130.5" y1="175.6641" y2="175.6641"/><text fill="#000000" font-family="sans-serif" font-size="13" font-weight="bold" lengthAdjust="spacingAndGlyphs" textLength="7" x="295" y="171.1592">4</text><text fill="#000000" font-family="sans-serif" font-size="13" lengthAdjust="spacingAndGlyphs" textLength="86" x="306" y="171.1592">CheckInputFile</text><rect fill="none" height="198.2969" style="stroke: #000000; stroke-width: 2.0;" width="1177.5" x="13" y="191.0156"/><polygon fill="#EEEEEE" points="13,191.0156,74,191.0156,74,199.0156,64,209.0156,13,209.0156,13,191.0156" style="stroke: #000000; stroke-width: 2.0;"/><text fill="#000000" font-family="sans-serif" font-size="13" font-weight="bold" lengthAdjust="spacingAndGlyphs" textLength="16" x="28" y="205.5107">alt</text><text fill="#000000" font-family="sans-serif" font-size="11" font-weight="bold" lengthAdjust="spacingAndGlyphs" textLength="98" x="89" y="204.4346">[successful case]</text><polygon fill="#A80036" points="299,227.3672,289,231.3672,299,235.3672,295,231.3672" style="stroke: #A80036; stroke-width: 1.0;"/><line style="stroke: #A80036; stroke-width: 1.0; stroke-dasharray: 2.0,2.0;" x1="293" x2="1135.5" y1="231.3672" y2="231.3672"/><text fill="#000000" font-family="sans-serif" font-size="13" font-weight="bold" lengthAdjust="spacingAndGlyphs" textLength="7" x="305" y="226.8623">5</text><text fill="#000000" font-family="sans-serif" font-size="13" lengthAdjust="spacingAndGlyphs" textLength="75" x="316" y="226.8623">FileValidated</text><line style="stroke: #000000; stroke-width: 1.0; stroke-dasharray: 2.0,2.0;" x1="13" x2="1190.5" y1="240.7188" y2="240.7188"/><text fill="#000000" font-family="sans-serif" font-size="11" font-weight="bold" lengthAdjust="spacingAndGlyphs" textLength="110" x="18" y="252.1377">[file cannot be read]</text><line style="stroke: #A80036; stroke-width: 2.0;" x1="294" x2="304" y1="272.5547" y2="282.5547"/><line style="stroke: #A80036; stroke-width: 2.0;" x1="294" x2="304" y1="282.5547" y2="272.5547"/><line style="stroke: #A80036; stroke-width: 1.0; stroke-dasharray: 2.0,2.0;" x1="300" x2="1135.5" y1="277.5547" y2="277.5547"/><text fill="#000000" font-family="sans-serif" font-size="13" font-weight="bold" lengthAdjust="spacingAndGlyphs" textLength="7" x="305" y="273.0498">6</text><text fill="#000000" font-family="sans-serif" font-size="13" lengthAdjust="spacingAndGlyphs" textLength="99" x="316" y="273.0498">CannotReadInput</text><line style="stroke: #A80036; stroke-width: 2.0;" x1="160" x2="170" y1="302.9063" y2="312.9063"/><line style="stroke: #A80036; stroke-width: 2.0;" x1="160" x2="170" y1="312.9063" y2="302.9063"/><line style="stroke: #A80036; stroke-width: 1.0; stroke-dasharray: 2.0,2.0;" x1="166" x2="287" y1="307.9063" y2="307.9063"/><text fill="#000000" font-family="sans-serif" font-size="13" font-weight="bold" lengthAdjust="spacingAndGlyphs" textLength="7" x="171" y="303.4014">7</text><text fill="#000000" font-family="sans-serif" font-size="13" lengthAdjust="spacingAndGlyphs" textLength="99" x="182" y="303.4014">CannotReadInput</text><line style="stroke: #A80036; stroke-width: 2.0;" x1="52" x2="62" y1="354.6094" y2="364.6094"/><line style="stroke: #A80036; stroke-width: 2.0;" x1="52" x2="62" y1="364.6094" y2="354.6094"/><line style="stroke: #A80036; stroke-width: 1.0; stroke-dasharray: 2.0,2.0;" x1="58" x2="153" y1="359.6094" y2="359.6094"/><text fill="#000000" font-family="sans-serif" font-size="13" font-weight="bold" lengthAdjust="spacingAndGlyphs" textLength="7" x="63" y="355.1045">8</text><text fill="#000000" font-family="sans-serif" font-size="13" lengthAdjust="spacingAndGlyphs" textLength="64" x="74" y="355.1045">Terminated</text><polygon fill="#FBFB77" filter="url(#f2yo04f)" points="159,321.2578,159,380.2578,512,380.2578,512,331.2578,502,321.2578,159,321.2578" style="stroke: #A80036; stroke-width: 1.0;"/><line style="stroke: #A80036; stroke-width: 1.0;" x1="502" x2="502" y1="321.2578" y2="331.2578"/><line style="stroke: #A80036; stroke-width: 1.0;" x1="512" x2="502" y1="331.2578" y2="331.2578"/><text fill="#000000" font-family="sans-serif" font-size="13" lengthAdjust="spacingAndGlyphs" textLength="231" x="165" y="339.7529">All error responses are forwarded to root</text><text fill="#000000" font-family="sans-serif" font-size="13" lengthAdjust="spacingAndGlyphs" textLength="160" x="165" y="356.1045">and execution is terminated</text><text fill="#000000" font-family="sans-serif" font-size="13" lengthAdjust="spacingAndGlyphs" textLength="332" x="165" y="372.4561">(will be ommited in next cals for brevity and betterreading)</text><polygon fill="#A80036" points="299,414.3125,289,418.3125,299,422.3125,295,418.3125" style="stroke: #A80036; stroke-width: 1.0;"/><line style="stroke: #A80036; stroke-width: 1.0; stroke-dasharray: 2.0,2.0;" x1="293" x2="1135.5" y1="418.3125" y2="418.3125"/><text fill="#000000" font-family="sans-serif" font-size="13" font-weight="bold" lengthAdjust="spacingAndGlyphs" textLength="7" x="305" y="413.8076">9</text><text fill="#000000" font-family="sans-serif" font-size="13" lengthAdjust="spacingAndGlyphs" textLength="39" x="316" y="413.8076">header</text><line style="stroke: #A80036; stroke-width: 1.0;" x1="288" x2="330" y1="449.0156" y2="449.0156"/><line style="stroke: #A80036; stroke-width: 1.0;" x1="330" x2="330" y1="449.0156" y2="462.0156"/><line style="stroke: #A80036; stroke-width: 1.0;" x1="289" x2="330" y1="462.0156" y2="462.0156"/><polygon fill="#A80036" points="299,458.0156,289,462.0156,299,466.0156,295,462.0156" style="stroke: #A80036; stroke-width: 1.0;"/><text fill="#000000" font-family="sans-serif" font-size="13" font-weight="bold" lengthAdjust="spacingAndGlyphs" textLength="14" x="295" y="444.1592">10</text><text fill="#000000" font-family="sans-serif" font-size="13" lengthAdjust="spacingAndGlyphs" textLength="157" x="313" y="444.1592">validate header using regex</text><polygon fill="#A80036" points="1218,488.0156,1228,492.0156,1218,496.0156,1222,492.0156" style="stroke: #A80036; stroke-width: 1.0;"/><line style="stroke: #A80036; stroke-width: 1.0;" x1="288" x2="1224" y1="492.0156" y2="492.0156"/><text fill="#000000" font-family="sans-serif" font-size="13" font-weight="bold" lengthAdjust="spacingAndGlyphs" textLength="14" x="295" y="487.5107">11</text><text fill="#000000" font-family="sans-serif" font-size="13" lengthAdjust="spacingAndGlyphs" textLength="59" x="313" y="487.5107">CreateFile</text><polygon fill="#A80036" points="299,518.3672,289,522.3672,299,526.3672,295,522.3672" style="stroke: #A80036; stroke-width: 1.0;"/><line style="stroke: #A80036; stroke-width: 1.0; stroke-dasharray: 2.0,2.0;" x1="293" x2="1229" y1="522.3672" y2="522.3672"/><text fill="#000000" font-family="sans-serif" font-size="13" font-weight="bold" lengthAdjust="spacingAndGlyphs" textLength="14" x="305" y="517.8623">12</text><text fill="#000000" font-family="sans-serif" font-size="13" lengthAdjust="spacingAndGlyphs" textLength="66" x="323" y="517.8623">FileCreated</text><polygon fill="#A80036" points="1218,548.7188,1228,552.7188,1218,556.7188,1222,552.7188" style="stroke: #A80036; stroke-width: 1.0;"/><line style="stroke: #A80036; stroke-width: 1.0;" x1="288" x2="1224" y1="552.7188" y2="552.7188"/><text fill="#000000" font-family="sans-serif" font-size="13" font-weight="bold" lengthAdjust="spacingAndGlyphs" textLength="14" x="295" y="548.2139">13</text><text fill="#000000" font-family="sans-serif" font-size="13" lengthAdjust="spacingAndGlyphs" textLength="72" x="313" y="548.2139">WriteHeader</text><polygon fill="#A80036" points="299,579.0703,289,583.0703,299,587.0703,295,583.0703" style="stroke: #A80036; stroke-width: 1.0;"/><line style="stroke: #A80036; stroke-width: 1.0; stroke-dasharray: 2.0,2.0;" x1="293" x2="1229" y1="583.0703" y2="583.0703"/><text fill="#000000" font-family="sans-serif" font-size="13" font-weight="bold" lengthAdjust="spacingAndGlyphs" textLength="14" x="305" y="578.5654">14</text><text fill="#000000" font-family="sans-serif" font-size="13" lengthAdjust="spacingAndGlyphs" textLength="44" x="323" y="578.5654">Succes</text><polygon fill="#A80036" points="465,609.4219,475,613.4219,465,617.4219,469,613.4219" style="stroke: #A80036; stroke-width: 1.0;"/><line style="stroke: #A80036; stroke-width: 1.0;" x1="288" x2="471" y1="613.4219" y2="613.4219"/><text fill="#000000" font-family="sans-serif" font-size="13" font-weight="bold" lengthAdjust="spacingAndGlyphs" textLength="14" x="295" y="608.917">15</text><text fill="#000000" font-family="sans-serif" font-size="13" lengthAdjust="spacingAndGlyphs" textLength="84" x="313" y="608.917">CheckNetwork</text><polygon fill="#A80036" points="299,639.7734,289,643.7734,299,647.7734,295,643.7734" style="stroke: #A80036; stroke-width: 1.0;"/><line style="stroke: #A80036; stroke-width: 1.0; stroke-dasharray: 2.0,2.0;" x1="293" x2="476" y1="643.7734" y2="643.7734"/><text fill="#000000" font-family="sans-serif" font-size="13" font-weight="bold" lengthAdjust="spacingAndGlyphs" textLength="14" x="305" y="639.2686">16</text><text fill="#000000" font-family="sans-serif" font-size="13" lengthAdjust="spacingAndGlyphs" textLength="66" x="323" y="639.2686">NetworkOK</text><polygon fill="#A80036" points="165,670.125,155,674.125,165,678.125,161,674.125" style="stroke: #A80036; stroke-width: 1.0;"/><line style="stroke: #A80036; stroke-width: 1.0; stroke-dasharray: 2.0,2.0;" x1="159" x2="287" y1="674.125" y2="674.125"/><text fill="#000000" font-family="sans-serif" font-size="13" font-weight="bold" lengthAdjust="spacingAndGlyphs" textLength="14" x="171" y="669.6201">17</text><text fill="#000000" font-family="sans-serif" font-size="13" lengthAdjust="spacingAndGlyphs" textLength="78" x="189" y="669.6201">AllChecksOK</text><polygon fill="#A80036" points="583,700.4766,593,704.4766,583,708.4766,587,704.4766" style="stroke: #A80036; stroke-width: 1.0;"/><line style="stroke: #A80036; stroke-width: 1.0;" x1="154" x2="589" y1="704.4766" y2="704.4766"/><text fill="#000000" font-family="sans-serif" font-size="13" font-weight="bold" lengthAdjust="spacingAndGlyphs" textLength="14" x="161" y="699.9717">18</text><text fill="#000000" font-family="sans-serif" font-size="13" lengthAdjust="spacingAndGlyphs" textLength="93" x="179" y="699.9717">StartProcessing</text><rect fill="#EEEEEE" filter="url(#f2yo04f)" height="3" style="stroke: #EEEEEE; stroke-width: 1.0;" width="1341" x="3" y="734.0039"/><line style="stroke: #000000; stroke-width: 1.0;" x1="3" x2="1344" y1="734.0039" y2="734.0039"/><line style="stroke: #000000; stroke-width: 1.0;" x1="3" x2="1344" y1="737.0039" y2="737.0039"/><rect fill="#EEEEEE" filter="url(#f2yo04f)" height="24.3516" style="stroke: #000000; stroke-width: 2.0;" width="146" x="600.5" y="722.8281"/><text fill="#000000" font-family="sans-serif" font-size="13" font-weight="bold" lengthAdjust="spacingAndGlyphs" textLength="128" x="606.5" y="740.3232">Repetition Until EOF</text><polygon fill="#0000FF" points="606,788.3555,596,792.3555,606,796.3555,602,792.3555" style="stroke: #0000FF; stroke-width: 1.0;"/><line style="stroke: #0000FF; stroke-width: 1.0; stroke-dasharray: 2.0,2.0;" x1="600" x2="831.5" y1="792.3555" y2="792.3555"/><text fill="#000000" font-family="sans-serif" font-size="13" font-weight="bold" lengthAdjust="spacingAndGlyphs" textLength="14" x="612" y="787.8506">19</text><text fill="#000000" font-family="sans-serif" font-size="13" lengthAdjust="spacingAndGlyphs" textLength="85" x="630" y="787.8506">GetNextChunk</text><polygon fill="#FBFB77" filter="url(#f2yo04f)" points="154,762.1797,154,804.1797,586,804.1797,586,772.1797,576,762.1797,154,762.1797" style="stroke: #A80036; stroke-width: 1.0;"/><line style="stroke: #A80036; stroke-width: 1.0;" x1="576" x2="576" y1="762.1797" y2="772.1797"/><line style="stroke: #A80036; stroke-width: 1.0;" x1="586" x2="576" y1="772.1797" y2="772.1797"/><text fill="#000000" font-family="sans-serif" font-size="13" lengthAdjust="spacingAndGlyphs" textLength="411" x="160" y="780.6748">Flow control actor will count number of csv lines in every process state.</text><text fill="#000000" font-family="sans-serif" font-size="13" lengthAdjust="spacingAndGlyphs" textLength="211" x="160" y="797.0264">This is a main thortle for the process</text><polygon fill="#A80036" points="1124.5,831.8828,1134.5,835.8828,1124.5,839.8828,1128.5,835.8828" style="stroke: #A80036; stroke-width: 1.0;"/><line style="stroke: #A80036; stroke-width: 1.0;" x1="595" x2="1130.5" y1="835.8828" y2="835.8828"/><text fill="#000000" font-family="sans-serif" font-size="13" font-weight="bold" lengthAdjust="spacingAndGlyphs" textLength="14" x="602" y="831.3779">20</text><text fill="#000000" font-family="sans-serif" font-size="13" lengthAdjust="spacingAndGlyphs" textLength="61" x="620" y="831.3779">ReadLines</text><polygon fill="#A80036" points="606,862.2344,596,866.2344,606,870.2344,602,866.2344" style="stroke: #A80036; stroke-width: 1.0;"/><line style="stroke: #A80036; stroke-width: 1.0; stroke-dasharray: 2.0,2.0;" x1="600" x2="1135.5" y1="866.2344" y2="866.2344"/><text fill="#000000" font-family="sans-serif" font-size="13" font-weight="bold" lengthAdjust="spacingAndGlyphs" textLength="14" x="612" y="861.7295">21</text><text fill="#000000" font-family="sans-serif" font-size="13" lengthAdjust="spacingAndGlyphs" textLength="31" x="630" y="861.7295">Lines</text><polygon fill="#0000FF" points="820.5,892.5859,830.5,896.5859,820.5,900.5859,824.5,896.5859" style="stroke: #0000FF; stroke-width: 1.0;"/><line style="stroke: #0000FF; stroke-width: 1.0; stroke-dasharray: 2.0,2.0;" x1="595" x2="826.5" y1="896.5859" y2="896.5859"/><text fill="#000000" font-family="sans-serif" font-size="13" font-weight="bold" lengthAdjust="spacingAndGlyphs" textLength="14" x="602" y="892.0811">22</text><text fill="#000000" font-family="sans-serif" font-size="13" lengthAdjust="spacingAndGlyphs" textLength="106" x="620" y="892.0811">NumberLinesRead</text><line style="stroke: #A80036; stroke-width: 1.0;" x1="595" x2="637" y1="927.2891" y2="927.2891"/><line style="stroke: #A80036; stroke-width: 1.0;" x1="637" x2="637" y1="927.2891" y2="940.2891"/><line style="stroke: #A80036; stroke-width: 1.0;" x1="596" x2="637" y1="940.2891" y2="940.2891"/><polygon fill="#A80036" points="606,936.2891,596,940.2891,606,944.2891,602,940.2891" style="stroke: #A80036; stroke-width: 1.0;"/><text fill="#000000" font-family="sans-serif" font-size="13" font-weight="bold" lengthAdjust="spacingAndGlyphs" textLength="14" x="602" y="922.4326">23</text><text fill="#000000" font-family="sans-serif" font-size="13" lengthAdjust="spacingAndGlyphs" textLength="71" x="620" y="922.4326">ValidateLine</text><rect fill="none" height="168.5938" style="stroke: #000000; stroke-width: 2.0;" width="533" x="527" y="955.2891"/><polygon fill="#EEEEEE" points="527,955.2891,588,955.2891,588,963.2891,578,973.2891,527,973.2891,527,955.2891" style="stroke: #000000; stroke-width: 2.0;"/><text fill="#000000" font-family="sans-serif" font-size="13" font-weight="bold" lengthAdjust="spacingAndGlyphs" textLength="16" x="542" y="969.7842">alt</text><text fill="#000000" font-family="sans-serif" font-size="11" font-weight="bold" lengthAdjust="spacingAndGlyphs" textLength="98" x="603" y="968.708">[successful case]</text><polygon fill="#A80036" points="990.5,991.6406,1000.5,995.6406,990.5,999.6406,994.5,995.6406" style="stroke: #A80036; stroke-width: 1.0;"/><line style="stroke: #A80036; stroke-width: 1.0;" x1="595" x2="996.5" y1="995.6406" y2="995.6406"/><text fill="#000000" font-family="sans-serif" font-size="13" font-weight="bold" lengthAdjust="spacingAndGlyphs" textLength="14" x="602" y="991.1357">24</text><text fill="#000000" font-family="sans-serif" font-size="13" lengthAdjust="spacingAndGlyphs" textLength="48" x="620" y="991.1357">GetData</text><polygon fill="#0000FF" points="820.5,1021.9922,830.5,1025.9922,820.5,1029.9922,824.5,1025.9922" style="stroke: #0000FF; stroke-width: 1.0;"/><line style="stroke: #0000FF; stroke-width: 1.0; stroke-dasharray: 2.0,2.0;" x1="595" x2="826.5" y1="1025.9922" y2="1025.9922"/><text fill="#000000" font-family="sans-serif" font-size="13" font-weight="bold" lengthAdjust="spacingAndGlyphs" textLength="14" x="602" y="1021.4873">25</text><text fill="#000000" font-family="sans-serif" font-size="13" lengthAdjust="spacingAndGlyphs" textLength="137" x="620" y="1021.4873">ValidLineSentToCrawler</text><line style="stroke: #000000; stroke-width: 1.0; stroke-dasharray: 2.0,2.0;" x1="527" x2="1060" y1="1035.3438" y2="1035.3438"/><text fill="#000000" font-family="sans-serif" font-size="11" font-weight="bold" lengthAdjust="spacingAndGlyphs" textLength="66" x="532" y="1046.7627">[line Invalid]</text><line style="stroke: #A80036; stroke-width: 1.0;" x1="595" x2="637" y1="1072.5313" y2="1072.5313"/><line style="stroke: #A80036; stroke-width: 1.0;" x1="637" x2="637" y1="1072.5313" y2="1085.5313"/><line style="stroke: #A80036; stroke-width: 1.0;" x1="596" x2="637" y1="1085.5313" y2="1085.5313"/><polygon fill="#A80036" points="606,1081.5313,596,1085.5313,606,1089.5313,602,1085.5313" style="stroke: #A80036; stroke-width: 1.0;"/><text fill="#000000" font-family="sans-serif" font-size="13" font-weight="bold" lengthAdjust="spacingAndGlyphs" textLength="14" x="602" y="1067.6748">26</text><text fill="#000000" font-family="sans-serif" font-size="13" lengthAdjust="spacingAndGlyphs" textLength="47" x="620" y="1067.6748">log error</text><polygon fill="#0000FF" points="820.5,1111.5313,830.5,1115.5313,820.5,1119.5313,824.5,1115.5313" style="stroke: #0000FF; stroke-width: 1.0;"/><line style="stroke: #0000FF; stroke-width: 1.0; stroke-dasharray: 2.0,2.0;" x1="595" x2="826.5" y1="1115.5313" y2="1115.5313"/><text fill="#000000" font-family="sans-serif" font-size="13" font-weight="bold" lengthAdjust="spacingAndGlyphs" textLength="14" x="602" y="1111.0264">27</text><text fill="#000000" font-family="sans-serif" font-size="13" lengthAdjust="spacingAndGlyphs" textLength="106" x="620" y="1111.0264">InvalidLineSkipped</text><line style="stroke: #A80036; stroke-width: 1.0;" x1="595" x2="637" y1="1153.2344" y2="1153.2344"/><line style="stroke: #A80036; stroke-width: 1.0;" x1="637" x2="637" y1="1153.2344" y2="1166.2344"/><line style="stroke: #A80036; stroke-width: 1.0;" x1="596" x2="637" y1="1166.2344" y2="1166.2344"/><polygon fill="#A80036" points="606,1162.2344,596,1166.2344,606,1170.2344,602,1166.2344" style="stroke: #A80036; stroke-width: 1.0;"/><text fill="#000000" font-family="sans-serif" font-size="13" font-weight="bold" lengthAdjust="spacingAndGlyphs" textLength="14" x="602" y="1148.3779">28</text><text fill="#000000" font-family="sans-serif" font-size="13" lengthAdjust="spacingAndGlyphs" textLength="72" x="620" y="1148.3779">GetNextLine</text><rect fill="none" height="198.9453" style="stroke: #000000; stroke-width: 2.0;" width="503.5" x="776" y="1181.2344"/><polygon fill="#EEEEEE" points="776,1181.2344,837,1181.2344,837,1189.2344,827,1199.2344,776,1199.2344,776,1181.2344" style="stroke: #000000; stroke-width: 2.0;"/><text fill="#000000" font-family="sans-serif" font-size="13" font-weight="bold" lengthAdjust="spacingAndGlyphs" textLength="16" x="791" y="1195.7295">alt</text><text fill="#000000" font-family="sans-serif" font-size="11" font-weight="bold" lengthAdjust="spacingAndGlyphs" textLength="98" x="852" y="1194.6533">[successful case]</text><polygon fill="#A80036" points="1218,1217.5859,1228,1221.5859,1218,1225.5859,1222,1221.5859" style="stroke: #A80036; stroke-width: 1.0;"/><line style="stroke: #A80036; stroke-width: 1.0;" x1="1002.5" x2="1224" y1="1221.5859" y2="1221.5859"/><text fill="#000000" font-family="sans-serif" font-size="13" font-weight="bold" lengthAdjust="spacingAndGlyphs" textLength="14" x="1009.5" y="1217.0811">29</text><text fill="#000000" font-family="sans-serif" font-size="13" lengthAdjust="spacingAndGlyphs" textLength="58" x="1027.5" y="1217.0811">Response</text><polygon fill="#0000FF" points="843.5,1247.9375,833.5,1251.9375,843.5,1255.9375,839.5,1251.9375" style="stroke: #0000FF; stroke-width: 1.0;"/><line style="stroke: #0000FF; stroke-width: 1.0; stroke-dasharray: 2.0,2.0;" x1="837.5" x2="1001.5" y1="1251.9375" y2="1251.9375"/><text fill="#000000" font-family="sans-serif" font-size="13" font-weight="bold" lengthAdjust="spacingAndGlyphs" textLength="14" x="849.5" y="1247.4326">30</text><text fill="#000000" font-family="sans-serif" font-size="13" lengthAdjust="spacingAndGlyphs" textLength="108" x="867.5" y="1247.4326">GotValidResponse</text><line style="stroke: #000000; stroke-width: 1.0; stroke-dasharray: 2.0,2.0;" x1="776" x2="1279.5" y1="1261.2891" y2="1261.2891"/><text fill="#000000" font-family="sans-serif" font-size="11" font-weight="bold" lengthAdjust="spacingAndGlyphs" textLength="92" x="781" y="1272.708">[cannot get data]</text><line style="stroke: #A80036; stroke-width: 1.0;" x1="1002.5" x2="1044.5" y1="1298.4766" y2="1298.4766"/><line style="stroke: #A80036; stroke-width: 1.0;" x1="1044.5" x2="1044.5" y1="1298.4766" y2="1311.4766"/><line style="stroke: #A80036; stroke-width: 1.0;" x1="1003.5" x2="1044.5" y1="1311.4766" y2="1311.4766"/><polygon fill="#A80036" points="1013.5,1307.4766,1003.5,1311.4766,1013.5,1315.4766,1009.5,1311.4766" style="stroke: #A80036; stroke-width: 1.0;"/><text fill="#000000" font-family="sans-serif" font-size="13" font-weight="bold" lengthAdjust="spacingAndGlyphs" textLength="14" x="1009.5" y="1293.6201">31</text><text fill="#000000" font-family="sans-serif" font-size="13" lengthAdjust="spacingAndGlyphs" textLength="102" x="1027.5" y="1293.6201">SetStatusAsError</text><polygon fill="#A80036" points="1218,1337.4766,1228,1341.4766,1218,1345.4766,1222,1341.4766" style="stroke: #A80036; stroke-width: 1.0;"/><line style="stroke: #A80036; stroke-width: 1.0;" x1="1002.5" x2="1224" y1="1341.4766" y2="1341.4766"/><text fill="#000000" font-family="sans-serif" font-size="13" font-weight="bold" lengthAdjust="spacingAndGlyphs" textLength="14" x="1009.5" y="1336.9717">32</text><text fill="#000000" font-family="sans-serif" font-size="13" lengthAdjust="spacingAndGlyphs" textLength="58" x="1027.5" y="1336.9717">Response</text><polygon fill="#0000FF" points="843.5,1367.8281,833.5,1371.8281,843.5,1375.8281,839.5,1371.8281" style="stroke: #0000FF; stroke-width: 1.0;"/><line style="stroke: #0000FF; stroke-width: 1.0; stroke-dasharray: 2.0,2.0;" x1="837.5" x2="1001.5" y1="1371.8281" y2="1371.8281"/><text fill="#000000" font-family="sans-serif" font-size="13" font-weight="bold" lengthAdjust="spacingAndGlyphs" textLength="14" x="849.5" y="1367.3232">33</text><text fill="#000000" font-family="sans-serif" font-size="13" lengthAdjust="spacingAndGlyphs" textLength="128" x="867.5" y="1367.3232">GotNotValidResponse</text><line style="stroke: #A80036; stroke-width: 1.0;" x1="1230" x2="1272" y1="1416.207" y2="1416.207"/><line style="stroke: #A80036; stroke-width: 1.0;" x1="1272" x2="1272" y1="1416.207" y2="1429.207"/><line style="stroke: #A80036; stroke-width: 1.0;" x1="1231" x2="1272" y1="1429.207" y2="1429.207"/><polygon fill="#A80036" points="1241,1425.207,1231,1429.207,1241,1433.207,1237,1429.207" style="stroke: #A80036; stroke-width: 1.0;"/><text fill="#000000" font-family="sans-serif" font-size="13" font-weight="bold" lengthAdjust="spacingAndGlyphs" textLength="14" x="1237" y="1411.3506">34</text><text fill="#000000" font-family="sans-serif" font-size="13" lengthAdjust="spacingAndGlyphs" textLength="82" x="1255" y="1411.3506">timerMessage</text><polygon fill="#FBFB77" filter="url(#f2yo04f)" points="943,1392.1797,943,1434.1797,1221,1434.1797,1221,1402.1797,1211,1392.1797,943,1392.1797" style="stroke: #A80036; stroke-width: 1.0;"/><line style="stroke: #A80036; stroke-width: 1.0;" x1="1211" x2="1211" y1="1392.1797" y2="1402.1797"/><line style="stroke: #A80036; stroke-width: 1.0;" x1="1221" x2="1211" y1="1402.1797" y2="1402.1797"/><text fill="#000000" font-family="sans-serif" font-size="13" lengthAdjust="spacingAndGlyphs" textLength="257" x="949" y="1410.6748">on timer message we are persisting received</text><text fill="#000000" font-family="sans-serif" font-size="13" lengthAdjust="spacingAndGlyphs" textLength="109" x="949" y="1427.0264">information on disk</text><polygon fill="#0000FF" points="843.5,1461.8828,833.5,1465.8828,843.5,1469.8828,839.5,1465.8828" style="stroke: #0000FF; stroke-width: 1.0;"/><line style="stroke: #0000FF; stroke-width: 1.0; stroke-dasharray: 2.0,2.0;" x1="837.5" x2="1229" y1="1465.8828" y2="1465.8828"/><text fill="#000000" font-family="sans-serif" font-size="13" font-weight="bold" lengthAdjust="spacingAndGlyphs" textLength="14" x="849.5" y="1461.3779">35</text><text fill="#000000" font-family="sans-serif" font-size="13" lengthAdjust="spacingAndGlyphs" textLength="11" x="867.5" y="1461.3779">1.</text><text fill="#000000" font-family="sans-serif" font-size="13" lengthAdjust="spacingAndGlyphs" textLength="106" x="882.5" y="1461.3779">LinesSavedToDisk</text><rect fill="#EEEEEE" filter="url(#f2yo04f)" height="3" style="stroke: #EEEEEE; stroke-width: 1.0;" width="1341" x="3" y="1495.4102"/><line style="stroke: #000000; stroke-width: 1.0;" x1="3" x2="1344" y1="1495.4102" y2="1495.4102"/><line style="stroke: #000000; stroke-width: 1.0;" x1="3" x2="1344" y1="1498.4102" y2="1498.4102"/><rect fill="#EEEEEE" filter="url(#f2yo04f)" height="24.3516" style="stroke: #000000; stroke-width: 2.0;" width="113" x="617" y="1484.2344"/><text fill="#000000" font-family="sans-serif" font-size="13" font-weight="bold" lengthAdjust="spacingAndGlyphs" textLength="95" x="623" y="1501.7295">Repetition END</text><polygon fill="#A80036" points="165,1536.5859,155,1540.5859,165,1544.5859,161,1540.5859" style="stroke: #A80036; stroke-width: 1.0;"/><line style="stroke: #A80036; stroke-width: 1.0; stroke-dasharray: 2.0,2.0;" x1="159" x2="594" y1="1540.5859" y2="1540.5859"/><text fill="#000000" font-family="sans-serif" font-size="13" font-weight="bold" lengthAdjust="spacingAndGlyphs" textLength="14" x="171" y="1536.0811">36</text><text fill="#000000" font-family="sans-serif" font-size="13" lengthAdjust="spacingAndGlyphs" textLength="101" x="189" y="1536.0811">Process Finished</text><polygon fill="#A80036" points="1218,1566.9375,1228,1570.9375,1218,1574.9375,1222,1570.9375" style="stroke: #A80036; stroke-width: 1.0;"/><line style="stroke: #A80036; stroke-width: 1.0;" x1="154" x2="1224" y1="1570.9375" y2="1570.9375"/><text fill="#000000" font-family="sans-serif" font-size="13" font-weight="bold" lengthAdjust="spacingAndGlyphs" textLength="14" x="161" y="1566.4326">37</text><text fill="#000000" font-family="sans-serif" font-size="13" lengthAdjust="spacingAndGlyphs" textLength="69" x="179" y="1566.4326">Flush Buffer</text><line style="stroke: #A80036; stroke-width: 1.0;" x1="154" x2="196" y1="1601.6406" y2="1601.6406"/><line style="stroke: #A80036; stroke-width: 1.0;" x1="196" x2="196" y1="1601.6406" y2="1614.6406"/><line style="stroke: #A80036; stroke-width: 1.0;" x1="167" x2="196" y1="1614.6406" y2="1614.6406"/><line style="stroke: #A80036; stroke-width: 2.0;" x1="160" x2="170" y1="1609.6406" y2="1619.6406"/><line style="stroke: #A80036; stroke-width: 2.0;" x1="160" x2="170" y1="1619.6406" y2="1609.6406"/><text fill="#000000" font-family="sans-serif" font-size="13" font-weight="bold" lengthAdjust="spacingAndGlyphs" textLength="14" x="161" y="1596.7842">38</text><text fill="#000000" font-family="sans-serif" font-size="13" lengthAdjust="spacingAndGlyphs" textLength="54" x="179" y="1596.7842">terminate</text></g></svg>