<?xml version="1.0" encoding="UTF-8" standalone="no"?><svg xmlns="http://www.w3.org/2000/svg" xmlns:xlink="http://www.w3.org/1999/xlink" contentScriptType="application/ecmascript" contentStyleType="text/css" height="1820px" preserveAspectRatio="none" style="width:880px;height:1820px;" version="1.1" viewBox="0 0 880 1820" width="880px" zoomAndPan="magnify"><defs><filter height="300%" id="fo0djvc" width="300%" x="-1" y="-1"><feGaussianBlur result="blurOut" stdDeviation="2.0"/><feColorMatrix in="blurOut" result="blurOut2" type="matrix" values="0 0 0 0 0 0 0 0 0 0 0 0 0 0 0 0 0 0 .4 0"/><feOffset dx="4.0" dy="4.0" in="blurOut2" result="blurOut3"/><feBlend in="SourceGraphic" in2="blurOut3" mode="normal"/></filter></defs><g><ellipse cx="441.5" cy="20" fill="#000000" filter="url(#fo0djvc)" rx="10" ry="10" style="stroke: none; stroke-width: 1.0;"/><rect fill="#FFFFFF" filter="url(#fo0djvc)" height="719.1953" style="stroke: #000000; stroke-width: 2.0;" width="863" x="10" y="40.5762"/><path d="M110,41.5762 L110,51.1855 L100,61.1855 L10,61.1855 " fill="none" style="stroke: #000000; stroke-width: 2.0;"/><text fill="#000000" font-family="sans-serif" font-size="14" lengthAdjust="spacingAndGlyphs" textLength="90" x="13" y="56.1094">System Check</text><rect fill="#FEFECE" filter="url(#fo0djvc)" height="35.0938" rx="12.5" ry="12.5" style="stroke: #A80036; stroke-width: 1.5;" width="127" x="378" y="78.1855"/><text fill="#000000" font-family="sans-serif" font-size="12" lengthAdjust="spacingAndGlyphs" textLength="107" x="388" y="100.6426">Validate arguments</text><polygon fill="#FEFECE" filter="url(#fo0djvc)" points="375,148.2793,508,148.2793,520,160.2793,508,172.2793,375,172.2793,363,160.2793,375,148.2793" style="stroke: #A80036; stroke-width: 1.5;"/><text fill="#000000" font-family="sans-serif" font-size="11" lengthAdjust="spacingAndGlyphs" textLength="19" x="445.5" y="183.6982">true</text><text fill="#000000" font-family="sans-serif" font-size="11" lengthAdjust="spacingAndGlyphs" textLength="133" x="375" y="164.7803">do we have two file paths?</text><text fill="#000000" font-family="sans-serif" font-size="11" lengthAdjust="spacingAndGlyphs" textLength="24" x="520" y="157.8623">false</text><ellipse cx="564" cy="160.2793" fill="none" filter="url(#fo0djvc)" rx="10" ry="10" style="stroke: #000000; stroke-width: 1.0;"/><ellipse cx="564.5" cy="160.7793" fill="#000000" filter="url(#fo0djvc)" rx="6" ry="6" style="stroke: none; stroke-width: 1.0;"/><rect fill="#FEFECE" filter="url(#fo0djvc)" height="35.0938" rx="12.5" ry="12.5" style="stroke: #A80036; stroke-width: 1.5;" width="125" x="379" y="257.1152"/><text fill="#000000" font-family="sans-serif" font-size="12" lengthAdjust="spacingAndGlyphs" textLength="105" x="389" y="279.5723">CreateActorSystem</text><rect fill="#FFFFFF" filter="url(#fo0djvc)" height="412.5625" style="stroke: #000000; stroke-width: 2.0;" width="843" x="20" y="327.209"/><path d="M154,328.209 L154,337.8184 L144,347.8184 L20,347.8184 " fill="none" style="stroke: #000000; stroke-width: 2.0;"/><text fill="#000000" font-family="sans-serif" font-size="14" lengthAdjust="spacingAndGlyphs" textLength="124" x="23" y="342.7422">Perform file/ checks</text><rect fill="#000000" filter="url(#fo0djvc)" height="6" rx="2.5" ry="2.5" style="stroke: #000000; stroke-width: 1.0;" width="823" x="30" y="364.8184"/><rect fill="#FEFECE" filter="url(#fo0djvc)" height="50.1875" rx="12.5" ry="12.5" style="stroke: #A80036; stroke-width: 1.5;" width="83" x="81" y="390.8184"/><text fill="#000000" font-family="sans-serif" font-size="12" lengthAdjust="spacingAndGlyphs" textLength="46" x="91" y="413.2754">Input file</text><text fill="#000000" font-family="sans-serif" font-size="12" lengthAdjust="spacingAndGlyphs" textLength="63" x="91" y="428.3691">and header</text><polygon fill="#FEFECE" filter="url(#fo0djvc)" points="72,524.9238,173,524.9238,185,536.9238,173,548.9238,72,548.9238,60,536.9238,72,524.9238" style="stroke: #A80036; stroke-width: 1.5;"/><text fill="#000000" font-family="sans-serif" font-size="11" lengthAdjust="spacingAndGlyphs" textLength="19" x="126.5" y="560.3428">true</text><text fill="#000000" font-family="sans-serif" font-size="11" lengthAdjust="spacingAndGlyphs" textLength="101" x="72" y="541.4248">file header matches?</text><text fill="#000000" font-family="sans-serif" font-size="11" lengthAdjust="spacingAndGlyphs" textLength="24" x="185" y="534.5068">false</text><ellipse cx="229" cy="536.9238" fill="none" filter="url(#fo0djvc)" rx="10" ry="10" style="stroke: #000000; stroke-width: 1.0;"/><ellipse cx="229.5" cy="537.4238" fill="#000000" filter="url(#fo0djvc)" rx="6" ry="6" style="stroke: none; stroke-width: 1.0;"/><rect fill="#FEFECE" filter="url(#fo0djvc)" height="35.0938" rx="12.5" ry="12.5" style="stroke: #A80036; stroke-width: 1.5;" width="69" x="88" y="633.7598"/><text fill="#000000" font-family="sans-serif" font-size="12" lengthAdjust="spacingAndGlyphs" textLength="49" x="98" y="656.2168">Send OK</text><polygon fill="#FEFECE" filter="url(#fo0djvc)" points="56,476.0059,189,476.0059,201,488.0059,189,500.0059,56,500.0059,44,488.0059,56,476.0059" style="stroke: #A80036; stroke-width: 1.5;"/><text fill="#000000" font-family="sans-serif" font-size="11" lengthAdjust="spacingAndGlyphs" textLength="19" x="126.5" y="511.4248">true</text><text fill="#000000" font-family="sans-serif" font-size="11" lengthAdjust="spacingAndGlyphs" textLength="133" x="56" y="492.5068">file exists and is accesible?</text><text fill="#000000" font-family="sans-serif" font-size="11" lengthAdjust="spacingAndGlyphs" textLength="30" x="201" y="485.5889">invalid</text><ellipse cx="251" cy="488.0059" fill="none" filter="url(#fo0djvc)" rx="10" ry="10" style="stroke: #000000; stroke-width: 1.0;"/><ellipse cx="251.5" cy="488.5059" fill="#000000" filter="url(#fo0djvc)" rx="6" ry="6" style="stroke: none; stroke-width: 1.0;"/><rect fill="#FEFECE" filter="url(#fo0djvc)" height="50.1875" rx="12.5" ry="12.5" style="stroke: #A80036; stroke-width: 1.5;" width="113" x="371" y="390.8184"/><text fill="#000000" font-family="sans-serif" font-size="12" lengthAdjust="spacingAndGlyphs" textLength="93" x="381" y="413.2754">Create output file</text><text fill="#000000" font-family="sans-serif" font-size="12" lengthAdjust="spacingAndGlyphs" textLength="75" x="381" y="428.3691">write heahder</text><polygon fill="#FEFECE" filter="url(#fo0djvc)" points="383,524.9238,472,524.9238,484,536.9238,472,548.9238,383,548.9238,371,536.9238,383,524.9238" style="stroke: #A80036; stroke-width: 1.5;"/><text fill="#000000" font-family="sans-serif" font-size="11" lengthAdjust="spacingAndGlyphs" textLength="19" x="431.5" y="560.3428">true</text><text fill="#000000" font-family="sans-serif" font-size="11" lengthAdjust="spacingAndGlyphs" textLength="89" x="383" y="541.4248">can write header?</text><text fill="#000000" font-family="sans-serif" font-size="11" lengthAdjust="spacingAndGlyphs" textLength="24" x="484" y="534.5068">false</text><ellipse cx="528" cy="536.9238" fill="none" filter="url(#fo0djvc)" rx="10" ry="10" style="stroke: #000000; stroke-width: 1.0;"/><ellipse cx="528.5" cy="537.4238" fill="#000000" filter="url(#fo0djvc)" rx="6" ry="6" style="stroke: none; stroke-width: 1.0;"/><rect fill="#FEFECE" filter="url(#fo0djvc)" height="35.0938" rx="12.5" ry="12.5" style="stroke: #A80036; stroke-width: 1.5;" width="69" x="393" y="633.7598"/><text fill="#000000" font-family="sans-serif" font-size="12" lengthAdjust="spacingAndGlyphs" textLength="49" x="403" y="656.2168">Send OK</text><polygon fill="#FEFECE" filter="url(#fo0djvc)" points="373.5,476.0059,481.5,476.0059,493.5,488.0059,481.5,500.0059,373.5,500.0059,361.5,488.0059,373.5,476.0059" style="stroke: #A80036; stroke-width: 1.5;"/><text fill="#000000" font-family="sans-serif" font-size="11" lengthAdjust="spacingAndGlyphs" textLength="19" x="431.5" y="511.4248">true</text><text fill="#000000" font-family="sans-serif" font-size="11" lengthAdjust="spacingAndGlyphs" textLength="108" x="373.5" y="492.5068">can create output file?</text><text fill="#000000" font-family="sans-serif" font-size="11" lengthAdjust="spacingAndGlyphs" textLength="24" x="493.5" y="485.5889">false</text><ellipse cx="537.5" cy="488.0059" fill="none" filter="url(#fo0djvc)" rx="10" ry="10" style="stroke: #000000; stroke-width: 1.0;"/><ellipse cx="538" cy="488.5059" fill="#000000" filter="url(#fo0djvc)" rx="6" ry="6" style="stroke: none; stroke-width: 1.0;"/><rect fill="#FEFECE" filter="url(#fo0djvc)" height="50.1875" rx="12.5" ry="12.5" style="stroke: #A80036; stroke-width: 1.5;" width="89" x="669" y="462.7832"/><text fill="#000000" font-family="sans-serif" font-size="12" lengthAdjust="spacingAndGlyphs" textLength="64" x="679" y="485.2402">Check if api</text><text fill="#000000" font-family="sans-serif" font-size="12" lengthAdjust="spacingAndGlyphs" textLength="66" x="679" y="500.334">is accesible</text><polygon fill="#FEFECE" filter="url(#fo0djvc)" points="666,547.9707,761,547.9707,773,559.9707,761,571.9707,666,571.9707,654,559.9707,666,547.9707" style="stroke: #A80036; stroke-width: 1.5;"/><text fill="#000000" font-family="sans-serif" font-size="11" lengthAdjust="spacingAndGlyphs" textLength="19" x="717.5" y="583.3896">true</text><text fill="#000000" font-family="sans-serif" font-size="11" lengthAdjust="spacingAndGlyphs" textLength="95" x="666" y="564.4717">can connect to api?</text><text fill="#000000" font-family="sans-serif" font-size="11" lengthAdjust="spacingAndGlyphs" textLength="24" x="773" y="557.5537">false</text><ellipse cx="817" cy="559.9707" fill="none" filter="url(#fo0djvc)" rx="10" ry="10" style="stroke: #000000; stroke-width: 1.0;"/><ellipse cx="817.5" cy="560.4707" fill="#000000" filter="url(#fo0djvc)" rx="6" ry="6" style="stroke: none; stroke-width: 1.0;"/><rect fill="#000000" filter="url(#fo0djvc)" height="6" rx="2.5" ry="2.5" style="stroke: #000000; stroke-width: 1.0;" width="823" x="30" y="713.7715"/><rect fill="#FFFFFF" filter="url(#fo0djvc)" height="948.4531" style="stroke: #000000; stroke-width: 2.0;" width="245.5" x="341" y="770.3477"/><path d="M424,771.3477 L424,780.957 L414,790.957 L341,790.957 " fill="none" style="stroke: #000000; stroke-width: 2.0;"/><text fill="#000000" font-family="sans-serif" font-size="14" lengthAdjust="spacingAndGlyphs" textLength="73" x="344" y="785.8809">Process file</text><rect fill="#FEFECE" filter="url(#fo0djvc)" height="35.0938" rx="12.5" ry="12.5" style="stroke: #A80036; stroke-width: 1.5;" width="125" x="379" y="807.957"/><text fill="#000000" font-family="sans-serif" font-size="12" lengthAdjust="spacingAndGlyphs" textLength="105" x="389" y="830.4141">Read file in chunks</text><polygon fill="#FEFECE" filter="url(#fo0djvc)" points="395.5,878.0508,487.5,878.0508,499.5,890.0508,487.5,902.0508,395.5,902.0508,383.5,890.0508,395.5,878.0508" style="stroke: #A80036; stroke-width: 1.5;"/><text fill="#000000" font-family="sans-serif" font-size="11" lengthAdjust="spacingAndGlyphs" textLength="19" x="445.5" y="913.4697">true</text><text fill="#000000" font-family="sans-serif" font-size="11" lengthAdjust="spacingAndGlyphs" textLength="92" x="395.5" y="894.5518">can read input file?</text><text fill="#000000" font-family="sans-serif" font-size="11" lengthAdjust="spacingAndGlyphs" textLength="24" x="499.5" y="887.6338">false</text><ellipse cx="543.5" cy="890.0508" fill="none" filter="url(#fo0djvc)" rx="10" ry="10" style="stroke: #000000; stroke-width: 1.0;"/><ellipse cx="544" cy="890.5508" fill="#000000" filter="url(#fo0djvc)" rx="6" ry="6" style="stroke: none; stroke-width: 1.0;"/><rect fill="#FFFFFF" filter="url(#fo0djvc)" height="388.9844" style="stroke: #000000; stroke-width: 2.0;" width="181" x="351" y="1034.8867"/><path d="M431,1035.8867 L431,1045.4961 L421,1055.4961 L351,1055.4961 " fill="none" style="stroke: #000000; stroke-width: 2.0;"/><text fill="#000000" font-family="sans-serif" font-size="14" lengthAdjust="spacingAndGlyphs" textLength="70" x="354" y="1050.4199">Multithread</text><rect fill="#000000" filter="url(#fo0djvc)" height="6" rx="2.5" ry="2.5" style="stroke: #000000; stroke-width: 1.0;" width="161" x="361" y="1072.4961"/><rect fill="#FEFECE" filter="url(#fo0djvc)" height="50.1875" rx="12.5" ry="12.5" style="stroke: #A80036; stroke-width: 1.5;" width="107" x="377" y="1146.4961"/><text fill="#000000" font-family="sans-serif" font-size="12" lengthAdjust="spacingAndGlyphs" textLength="87" x="387" y="1168.9531">Worker process</text><text fill="#000000" font-family="sans-serif" font-size="12" lengthAdjust="spacingAndGlyphs" textLength="62" x="387" y="1184.0469">GetApiData</text><polygon fill="#FEFECE" filter="url(#fo0djvc)" points="430.5,1098.4961,442.5,1110.4961,430.5,1122.4961,418.5,1110.4961,430.5,1098.4961" style="stroke: #A80036; stroke-width: 1.5;"/><polygon fill="#FEFECE" filter="url(#fo0djvc)" points="392,1268.6836,469,1268.6836,481,1280.6836,469,1292.6836,392,1292.6836,380,1280.6836,392,1268.6836" style="stroke: #A80036; stroke-width: 1.5;"/><text fill="#000000" font-family="sans-serif" font-size="11" lengthAdjust="spacingAndGlyphs" textLength="77" x="392" y="1285.1846">can get api data</text><rect fill="#FEFECE" filter="url(#fo0djvc)" height="50.1875" rx="12.5" ry="12.5" style="stroke: #A80036; stroke-width: 1.5;" width="111" x="375" y="1327.6836"/><text fill="#000000" font-family="sans-serif" font-size="12" lengthAdjust="spacingAndGlyphs" textLength="91" x="385" y="1350.1406">"Worker process</text><text fill="#000000" font-family="sans-serif" font-size="12" lengthAdjust="spacingAndGlyphs" textLength="66" x="385" y="1365.2344">GetApiData"</text><rect fill="#000000" filter="url(#fo0djvc)" height="6" rx="2.5" ry="2.5" style="stroke: #000000; stroke-width: 1.0;" width="161" x="361" y="1397.8711"/><polygon fill="#FEFECE" filter="url(#fo0djvc)" points="441.5,986.8867,453.5,998.8867,441.5,1010.8867,429.5,998.8867,441.5,986.8867" style="stroke: #A80036; stroke-width: 1.5;"/><polygon fill="#FEFECE" filter="url(#fo0djvc)" points="414.5,1495.8711,468.5,1495.8711,480.5,1507.8711,468.5,1519.8711,414.5,1519.8711,402.5,1507.8711,414.5,1495.8711" style="stroke: #A80036; stroke-width: 1.5;"/><text fill="#000000" font-family="sans-serif" font-size="11" lengthAdjust="spacingAndGlyphs" textLength="54" x="414.5" y="1512.3721">more data?</text><rect fill="#FEFECE" filter="url(#fo0djvc)" height="35.0938" rx="12.5" ry="12.5" style="stroke: #A80036; stroke-width: 1.5;" width="117" x="383" y="1554.8711"/><text fill="#000000" font-family="sans-serif" font-size="12" lengthAdjust="spacingAndGlyphs" textLength="97" x="393" y="1577.3281">Write to output file</text><polygon fill="#FEFECE" filter="url(#fo0djvc)" points="384.5,1624.9648,498.5,1624.9648,510.5,1636.9648,498.5,1648.9648,384.5,1648.9648,372.5,1636.9648,384.5,1624.9648" style="stroke: #A80036; stroke-width: 1.5;"/><text fill="#000000" font-family="sans-serif" font-size="11" lengthAdjust="spacingAndGlyphs" textLength="19" x="445.5" y="1660.3838">true</text><text fill="#000000" font-family="sans-serif" font-size="11" lengthAdjust="spacingAndGlyphs" textLength="114" x="384.5" y="1641.4658">can write to output file?</text><text fill="#000000" font-family="sans-serif" font-size="11" lengthAdjust="spacingAndGlyphs" textLength="24" x="510.5" y="1634.5479">false</text><ellipse cx="554.5" cy="1636.9648" fill="none" filter="url(#fo0djvc)" rx="10" ry="10" style="stroke: #000000; stroke-width: 1.0;"/><ellipse cx="555" cy="1637.4648" fill="#000000" filter="url(#fo0djvc)" rx="6" ry="6" style="stroke: none; stroke-width: 1.0;"/><rect fill="#FEFECE" filter="url(#fo0djvc)" height="35.0938" rx="12.5" ry="12.5" style="stroke: #A80036; stroke-width: 1.5;" width="100" x="391.5" y="1738.8008"/><text fill="#000000" font-family="sans-serif" font-size="12" lengthAdjust="spacingAndGlyphs" textLength="80" x="401.5" y="1761.2578">Exit 0 (succes)</text><ellipse cx="441.5" cy="1803.8945" fill="none" filter="url(#fo0djvc)" rx="10" ry="10" style="stroke: #000000; stroke-width: 1.0;"/><ellipse cx="442" cy="1804.3945" fill="#000000" filter="url(#fo0djvc)" rx="6" ry="6" style="stroke: none; stroke-width: 1.0;"/><line style="stroke: #A80036; stroke-width: 1.5;" x1="441.5" x2="441.5" y1="172.2793" y2="257.1152"/><polygon fill="#A80036" points="437.5,247.1152,441.5,257.1152,445.5,247.1152,441.5,251.1152" style="stroke: #A80036; stroke-width: 1.0;"/><line style="stroke: #A80036; stroke-width: 1.5;" x1="520" x2="554" y1="160.2793" y2="160.2793"/><polygon fill="#A80036" points="544,156.2793,554,160.2793,544,164.2793,548,160.2793" style="stroke: #A80036; stroke-width: 1.0;"/><line style="stroke: #A80036; stroke-width: 1.5;" x1="441.5" x2="441.5" y1="113.2793" y2="148.2793"/><polygon fill="#A80036" points="437.5,138.2793,441.5,148.2793,445.5,138.2793,441.5,142.2793" style="stroke: #A80036; stroke-width: 1.0;"/><line style="stroke: #A80036; stroke-width: 1.5;" x1="122.5" x2="122.5" y1="548.9238" y2="633.7598"/><polygon fill="#A80036" points="118.5,623.7598,122.5,633.7598,126.5,623.7598,122.5,627.7598" style="stroke: #A80036; stroke-width: 1.0;"/><line style="stroke: #A80036; stroke-width: 1.5;" x1="185" x2="219" y1="536.9238" y2="536.9238"/><polygon fill="#A80036" points="209,532.9238,219,536.9238,209,540.9238,213,536.9238" style="stroke: #A80036; stroke-width: 1.0;"/><line style="stroke: #A80036; stroke-width: 1.5;" x1="122.5" x2="122.5" y1="500.0059" y2="524.9238"/><polygon fill="#A80036" points="118.5,514.9238,122.5,524.9238,126.5,514.9238,122.5,518.9238" style="stroke: #A80036; stroke-width: 1.0;"/><line style="stroke: #A80036; stroke-width: 1.5;" x1="201" x2="241" y1="488.0059" y2="488.0059"/><polygon fill="#A80036" points="231,484.0059,241,488.0059,231,492.0059,235,488.0059" style="stroke: #A80036; stroke-width: 1.0;"/><line style="stroke: #A80036; stroke-width: 1.5;" x1="122.5" x2="122.5" y1="668.8535" y2="713.7715"/><polygon fill="#A80036" points="118.5,703.7715,122.5,713.7715,126.5,703.7715,122.5,707.7715" style="stroke: #A80036; stroke-width: 1.0;"/><line style="stroke: #A80036; stroke-width: 1.5;" x1="122.5" x2="122.5" y1="441.0059" y2="476.0059"/><polygon fill="#A80036" points="118.5,466.0059,122.5,476.0059,126.5,466.0059,122.5,470.0059" style="stroke: #A80036; stroke-width: 1.0;"/><line style="stroke: #A80036; stroke-width: 1.5;" x1="427.5" x2="427.5" y1="548.9238" y2="633.7598"/><polygon fill="#A80036" points="423.5,623.7598,427.5,633.7598,431.5,623.7598,427.5,627.7598" style="stroke: #A80036; stroke-width: 1.0;"/><line style="stroke: #A80036; stroke-width: 1.5;" x1="484" x2="518" y1="536.9238" y2="536.9238"/><polygon fill="#A80036" points="508,532.9238,518,536.9238,508,540.9238,512,536.9238" style="stroke: #A80036; stroke-width: 1.0;"/><line style="stroke: #A80036; stroke-width: 1.5;" x1="427.5" x2="427.5" y1="500.0059" y2="524.9238"/><polygon fill="#A80036" points="423.5,514.9238,427.5,524.9238,431.5,514.9238,427.5,518.9238" style="stroke: #A80036; stroke-width: 1.0;"/><line style="stroke: #A80036; stroke-width: 1.5;" x1="493.5" x2="527.5" y1="488.0059" y2="488.0059"/><polygon fill="#A80036" points="517.5,484.0059,527.5,488.0059,517.5,492.0059,521.5,488.0059" style="stroke: #A80036; stroke-width: 1.0;"/><line style="stroke: #A80036; stroke-width: 1.5;" x1="427.5" x2="427.5" y1="668.8535" y2="713.7715"/><polygon fill="#A80036" points="423.5,703.7715,427.5,713.7715,431.5,703.7715,427.5,707.7715" style="stroke: #A80036; stroke-width: 1.0;"/><line style="stroke: #A80036; stroke-width: 1.5;" x1="427.5" x2="427.5" y1="441.0059" y2="476.0059"/><polygon fill="#A80036" points="423.5,466.0059,427.5,476.0059,431.5,466.0059,427.5,470.0059" style="stroke: #A80036; stroke-width: 1.0;"/><line style="stroke: #A80036; stroke-width: 1.5;" x1="713.5" x2="713.5" y1="571.9707" y2="713.7715"/><polygon fill="#A80036" points="709.5,703.7715,713.5,713.7715,717.5,703.7715,713.5,707.7715" style="stroke: #A80036; stroke-width: 1.0;"/><line style="stroke: #A80036; stroke-width: 1.5;" x1="773" x2="807" y1="559.9707" y2="559.9707"/><polygon fill="#A80036" points="797,555.9707,807,559.9707,797,563.9707,801,559.9707" style="stroke: #A80036; stroke-width: 1.0;"/><line style="stroke: #A80036; stroke-width: 1.5;" x1="713.5" x2="713.5" y1="512.9707" y2="547.9707"/><polygon fill="#A80036" points="709.5,537.9707,713.5,547.9707,717.5,537.9707,713.5,541.9707" style="stroke: #A80036; stroke-width: 1.0;"/><line style="stroke: #A80036; stroke-width: 1.5;" x1="122.5" x2="122.5" y1="370.8184" y2="390.8184"/><polygon fill="#A80036" points="118.5,380.8184,122.5,390.8184,126.5,380.8184,122.5,384.8184" style="stroke: #A80036; stroke-width: 1.0;"/><line style="stroke: #A80036; stroke-width: 1.5;" x1="427.5" x2="427.5" y1="370.8184" y2="390.8184"/><polygon fill="#A80036" points="423.5,380.8184,427.5,390.8184,431.5,380.8184,427.5,384.8184" style="stroke: #A80036; stroke-width: 1.0;"/><line style="stroke: #A80036; stroke-width: 1.5;" x1="713.5" x2="713.5" y1="370.8184" y2="462.7832"/><polygon fill="#A80036" points="709.5,452.7832,713.5,462.7832,717.5,452.7832,713.5,456.7832" style="stroke: #A80036; stroke-width: 1.0;"/><line style="stroke: #A80036; stroke-width: 1.5;" x1="441.5" x2="441.5" y1="292.209" y2="364.8184"/><polygon fill="#A80036" points="437.5,354.8184,441.5,364.8184,445.5,354.8184,441.5,358.8184" style="stroke: #A80036; stroke-width: 1.0;"/><line style="stroke: #A80036; stroke-width: 1.5;" x1="441.5" x2="441.5" y1="30" y2="78.1855"/><polygon fill="#A80036" points="437.5,68.1855,441.5,78.1855,445.5,68.1855,441.5,72.1855" style="stroke: #A80036; stroke-width: 1.0;"/><line style="stroke: #A80036; stroke-width: 1.5;" x1="441.5" x2="441.5" y1="902.0508" y2="986.8867"/><polygon fill="#A80036" points="437.5,976.8867,441.5,986.8867,445.5,976.8867,441.5,980.8867" style="stroke: #A80036; stroke-width: 1.0;"/><line style="stroke: #A80036; stroke-width: 1.5;" x1="499.5" x2="533.5" y1="890.0508" y2="890.0508"/><polygon fill="#A80036" points="523.5,886.0508,533.5,890.0508,523.5,894.0508,527.5,890.0508" style="stroke: #A80036; stroke-width: 1.0;"/><line style="stroke: #A80036; stroke-width: 1.5;" x1="441.5" x2="441.5" y1="843.0508" y2="878.0508"/><polygon fill="#A80036" points="437.5,868.0508,441.5,878.0508,445.5,868.0508,441.5,872.0508" style="stroke: #A80036; stroke-width: 1.0;"/><line style="stroke: #A80036; stroke-width: 1.5;" x1="430.5" x2="430.5" y1="1122.4961" y2="1146.4961"/><polygon fill="#A80036" points="426.5,1136.4961,430.5,1146.4961,434.5,1136.4961,430.5,1140.4961" style="stroke: #A80036; stroke-width: 1.0;"/><line style="stroke: #A80036; stroke-width: 1.5;" x1="481" x2="496" y1="1280.6836" y2="1280.6836"/><polygon fill="#A80036" points="492,1205.5898,496,1195.5898,500,1205.5898,496,1201.5898" style="stroke: #A80036; stroke-width: 1.5;"/><line style="stroke: #A80036; stroke-width: 1.5;" x1="496" x2="496" y1="1110.4961" y2="1280.6836"/><line style="stroke: #A80036; stroke-width: 1.5;" x1="496" x2="442.5" y1="1110.4961" y2="1110.4961"/><polygon fill="#A80036" points="452.5,1106.4961,442.5,1110.4961,452.5,1114.4961,448.5,1110.4961" style="stroke: #A80036; stroke-width: 1.0;"/><line style="stroke: #A80036; stroke-width: 1.5;" x1="430.5" x2="430.5" y1="1196.6836" y2="1268.6836"/><polygon fill="#A80036" points="426.5,1258.6836,430.5,1268.6836,434.5,1258.6836,430.5,1262.6836" style="stroke: #A80036; stroke-width: 1.0;"/><line style="stroke: #A80036; stroke-width: 1.5;" x1="430.5" x2="430.5" y1="1292.6836" y2="1327.6836"/><polygon fill="#A80036" points="426.5,1317.6836,430.5,1327.6836,434.5,1317.6836,430.5,1321.6836" style="stroke: #A80036; stroke-width: 1.0;"/><line style="stroke: #A80036; stroke-width: 1.5;" x1="430.5" x2="430.5" y1="1078.4961" y2="1098.4961"/><polygon fill="#A80036" points="426.5,1088.4961,430.5,1098.4961,434.5,1088.4961,430.5,1092.4961" style="stroke: #A80036; stroke-width: 1.0;"/><line style="stroke: #A80036; stroke-width: 1.5;" x1="430.5" x2="430.5" y1="1377.8711" y2="1397.8711"/><polygon fill="#A80036" points="426.5,1387.8711,430.5,1397.8711,434.5,1387.8711,430.5,1391.8711" style="stroke: #A80036; stroke-width: 1.0;"/><line style="stroke: #A80036; stroke-width: 1.5;" x1="441.5" x2="441.5" y1="1010.8867" y2="1072.4961"/><polygon fill="#A80036" points="437.5,1062.4961,441.5,1072.4961,445.5,1062.4961,441.5,1066.4961" style="stroke: #A80036; stroke-width: 1.0;"/><line style="stroke: #A80036; stroke-width: 1.5;" x1="480.5" x2="544" y1="1507.8711" y2="1507.8711"/><polygon fill="#A80036" points="540,1263.3789,544,1253.3789,548,1263.3789,544,1259.3789" style="stroke: #A80036; stroke-width: 1.5;"/><line style="stroke: #A80036; stroke-width: 1.5;" x1="544" x2="544" y1="998.8867" y2="1507.8711"/><line style="stroke: #A80036; stroke-width: 1.5;" x1="544" x2="453.5" y1="998.8867" y2="998.8867"/><polygon fill="#A80036" points="463.5,994.8867,453.5,998.8867,463.5,1002.8867,459.5,998.8867" style="stroke: #A80036; stroke-width: 1.0;"/><line style="stroke: #A80036; stroke-width: 1.5;" x1="441.5" x2="441.5" y1="1403.8711" y2="1495.8711"/><polygon fill="#A80036" points="437.5,1485.8711,441.5,1495.8711,445.5,1485.8711,441.5,1489.8711" style="stroke: #A80036; stroke-width: 1.0;"/><line style="stroke: #A80036; stroke-width: 1.5;" x1="441.5" x2="441.5" y1="1519.8711" y2="1554.8711"/><polygon fill="#A80036" points="437.5,1544.8711,441.5,1554.8711,445.5,1544.8711,441.5,1548.8711" style="stroke: #A80036; stroke-width: 1.0;"/><line style="stroke: #A80036; stroke-width: 1.5;" x1="441.5" x2="441.5" y1="1648.9648" y2="1738.8008"/><polygon fill="#A80036" points="437.5,1728.8008,441.5,1738.8008,445.5,1728.8008,441.5,1732.8008" style="stroke: #A80036; stroke-width: 1.0;"/><line style="stroke: #A80036; stroke-width: 1.5;" x1="510.5" x2="544.5" y1="1636.9648" y2="1636.9648"/><polygon fill="#A80036" points="534.5,1632.9648,544.5,1636.9648,534.5,1640.9648,538.5,1636.9648" style="stroke: #A80036; stroke-width: 1.0;"/><line style="stroke: #A80036; stroke-width: 1.5;" x1="441.5" x2="441.5" y1="1589.9648" y2="1624.9648"/><polygon fill="#A80036" points="437.5,1614.9648,441.5,1624.9648,445.5,1614.9648,441.5,1618.9648" style="stroke: #A80036; stroke-width: 1.0;"/><line style="stroke: #A80036; stroke-width: 1.5;" x1="441.5" x2="441.5" y1="719.7715" y2="807.957"/><polygon fill="#A80036" points="437.5,797.957,441.5,807.957,445.5,797.957,441.5,801.957" style="stroke: #A80036; stroke-width: 1.0;"/><line style="stroke: #A80036; stroke-width: 1.5;" x1="441.5" x2="441.5" y1="1773.8945" y2="1793.8945"/><polygon fill="#A80036" points="437.5,1783.8945,441.5,1793.8945,445.5,1783.8945,441.5,1787.8945" style="stroke: #A80036; stroke-width: 1.0;"/></g></svg>