<?xml version="1.0" encoding="UTF-8" standalone="no"?><svg xmlns="http://www.w3.org/2000/svg" xmlns:xlink="http://www.w3.org/1999/xlink" contentScriptType="application/ecmascript" contentStyleType="text/css" height="253px" preserveAspectRatio="none" style="width:293px;height:253px;" version="1.1" viewBox="0 0 293 253" width="293px" zoomAndPan="magnify"><defs><filter height="300%" id="f9fr5sl" width="300%" x="-1" y="-1"><feGaussianBlur result="blurOut" stdDeviation="2.0"/><feColorMatrix in="blurOut" result="blurOut2" type="matrix" values="0 0 0 0 0 0 0 0 0 0 0 0 0 0 0 0 0 0 .4 0"/><feOffset dx="4.0" dy="4.0" in="blurOut2" result="blurOut3"/><feBlend in="SourceGraphic" in2="blurOut3" mode="normal"/></filter></defs><g><line style="stroke: #A80036; stroke-width: 1.0; stroke-dasharray: 5.0,5.0;" x1="59" x2="59" y1="87.6094" y2="168.3125"/><line style="stroke: #A80036; stroke-width: 1.0; stroke-dasharray: 5.0,5.0;" x1="151" x2="151" y1="87.6094" y2="168.3125"/><line style="stroke: #A80036; stroke-width: 1.0; stroke-dasharray: 5.0,5.0;" x1="258.5" x2="258.5" y1="87.6094" y2="168.3125"/><text fill="#000000" font-family="sans-serif" font-size="14" lengthAdjust="spacingAndGlyphs" textLength="96" x="8" y="84.5332">dataDispatcher</text><ellipse cx="59" cy="13" fill="#FEFECE" filter="url(#f9fr5sl)" rx="8" ry="8" style="stroke: #A80036; stroke-width: 2.0;"/><path d="M59,21 L59,48 M46,29 L72,29 M59,48 L46,63 M59,48 L72,63 " fill="#FEFECE" filter="url(#f9fr5sl)" style="stroke: #A80036; stroke-width: 2.0;"/><text fill="#000000" font-family="sans-serif" font-size="14" lengthAdjust="spacingAndGlyphs" textLength="96" x="8" y="181.8457">dataDispatcher</text><ellipse cx="59" cy="194.9219" fill="#FEFECE" filter="url(#f9fr5sl)" rx="8" ry="8" style="stroke: #A80036; stroke-width: 2.0;"/><path d="M59,202.9219 L59,229.9219 M46,210.9219 L72,210.9219 M59,229.9219 L46,244.9219 M59,229.9219 L72,244.9219 " fill="#FEFECE" filter="url(#f9fr5sl)" style="stroke: #A80036; stroke-width: 2.0;"/><text fill="#000000" font-family="sans-serif" font-size="14" lengthAdjust="spacingAndGlyphs" textLength="56" x="120" y="84.5332">fileWriter</text><ellipse cx="151" cy="13" fill="#FEFECE" filter="url(#f9fr5sl)" rx="8" ry="8" style="stroke: #A80036; stroke-width: 2.0;"/><path d="M151,21 L151,48 M138,29 L164,29 M151,48 L138,63 M151,48 L164,63 " fill="#FEFECE" filter="url(#f9fr5sl)" style="stroke: #A80036; stroke-width: 2.0;"/><text fill="#000000" font-family="sans-serif" font-size="14" lengthAdjust="spacingAndGlyphs" textLength="56" x="120" y="181.8457">fileWriter</text><ellipse cx="151" cy="194.9219" fill="#FEFECE" filter="url(#f9fr5sl)" rx="8" ry="8" style="stroke: #A80036; stroke-width: 2.0;"/><path d="M151,202.9219 L151,229.9219 M138,210.9219 L164,210.9219 M151,229.9219 L138,244.9219 M151,229.9219 L164,244.9219 " fill="#FEFECE" filter="url(#f9fr5sl)" style="stroke: #A80036; stroke-width: 2.0;"/><text fill="#000000" font-family="sans-serif" font-size="14" lengthAdjust="spacingAndGlyphs" textLength="73" x="219.5" y="84.5332">webCrawler</text><ellipse cx="259" cy="13" fill="#FEFECE" filter="url(#f9fr5sl)" rx="8" ry="8" style="stroke: #A80036; stroke-width: 2.0;"/><path d="M259,21 L259,48 M246,29 L272,29 M259,48 L246,63 M259,48 L272,63 " fill="#FEFECE" filter="url(#f9fr5sl)" style="stroke: #A80036; stroke-width: 2.0;"/><text fill="#000000" font-family="sans-serif" font-size="14" lengthAdjust="spacingAndGlyphs" textLength="73" x="219.5" y="181.8457">webCrawler</text><ellipse cx="259" cy="194.9219" fill="#FEFECE" filter="url(#f9fr5sl)" rx="8" ry="8" style="stroke: #A80036; stroke-width: 2.0;"/><path d="M259,202.9219 L259,229.9219 M246,210.9219 L272,210.9219 M259,229.9219 L246,244.9219 M259,229.9219 L272,244.9219 " fill="#FEFECE" filter="url(#f9fr5sl)" style="stroke: #A80036; stroke-width: 2.0;"/><polygon fill="#A80036" points="247,115.6094,257,119.6094,247,123.6094,251,119.6094" style="stroke: #A80036; stroke-width: 1.0;"/><line style="stroke: #A80036; stroke-width: 1.0;" x1="59" x2="253" y1="119.6094" y2="119.6094"/><text fill="#000000" font-family="sans-serif" font-size="13" lengthAdjust="spacingAndGlyphs" textLength="76" x="66" y="115.1045">getResponse</text><polygon fill="#A80036" points="162,145.9609,152,149.9609,162,153.9609,158,149.9609" style="stroke: #A80036; stroke-width: 1.0;"/><line style="stroke: #A80036; stroke-width: 1.0;" x1="156" x2="258" y1="149.9609" y2="149.9609"/><text fill="#000000" font-family="sans-serif" font-size="13" lengthAdjust="spacingAndGlyphs" textLength="84" x="168" y="145.4561">saveResponse</text></g></svg>